This is my own rip.

I couldn't find chapter titles anywhere (not on the DVD or on the web), so I just made some up after a quick re-watching.

General
Unique ID                        : 244383895652060216859163384327289642109 (0xB7DAA052540E5DE8A11958F0F5831C7D)
Format                           : Matroska
Format version                   : Version 4 / Version 2
File size                        : 1.81 GiB
Duration                         : 1h 27mn
Overall bit rate mode            : Variable
Overall bit rate                 : 2 963 Kbps
Encoded date                     : UTC 2013-06-20 11:13:36
Writing application              : mkvmerge v6.1.0 ('Old Devil') built on Mar  2 2013 14:32:37
Writing library                  : libebml v1.3.0 + libmatroska v1.4.0

Video
ID                               : 1
Format                           : AVC
Format/Info                      : Advanced Video Codec
Format profile                   : High@L4.1
Format settings, CABAC           : Yes
Format settings, ReFrames        : 7 frames
Codec ID                         : V_MPEG4/ISO/AVC
Duration                         : 1h 27mn
Bit rate mode                    : Variable
Bit rate                         : 2 520 Kbps
Maximum bit rate                 : 27.8 Mbps
Width                            : 1 280 pixels
Height                           : 692 pixels
Display aspect ratio             : 1.850
Frame rate                       : 23.976 fps
Color space                      : YUV
Chroma subsampling               : 4:2:0
Bit depth                        : 8 bits
Scan type                        : Progressive
Bits/(Pixel*Frame)               : 0.119
Stream size                      : 1.54 GiB (85%)
Writing library                  : x264 core 129 r2245 bc13772
Language                         : English
Default                          : Yes
Forced                           : No

Audio
ID                               : 2
Format                           : AC-3
Format/Info                      : Audio Coding 3
Mode extension                   : CM (complete main)
Codec ID                         : A_AC3
Duration                         : 1h 27mn
Bit rate mode                    : Constant
Bit rate                         : 384 Kbps
Channel(s)                       : 2 channels
Channel positions                : Front: L R
Sampling rate                    : 48.0 KHz
Bit depth                        : 16 bits
Compression mode                 : Lossy
Stream size                      : 240 MiB (13%)
Language                         : English
Default                          : Yes
Forced                           : No

Menu
00:00:00.000                     : en:The Curse of the Bournemouths
00:02:45.540                     : en:Opening Titles
00:09:41.539                     : en:The New Duke
00:18:08.754                     : en:Blanket and Rattle
00:30:45.302                     : en:Hiding from the Tour
00:40:06.571                     : en:The Estate
00:50:19.892                     : en:The Wedding
01:00:09.648                     : en:"It Takes a Lot to Kill Me"
01:09:24.744                     : en:The Next Duke
01:19:36.855                     : en:The Last of Shadgrind
01:23:50.108                     : en:End Titles
